<?xml version="1.0" encoding="iso-8859-1"?>
<!-- Generator: Adobe Illustrator 19.0.0, SVG Export Plug-In . SVG Version: 6.00 Build 0)  -->
<svg version="1.1" id="Capa_1" xmlns="http://www.w3.org/2000/svg" xmlns:xlink="http://www.w3.org/1999/xlink" x="0px" y="0px"
	 viewBox="0 0 447.991 447.991" style="enable-background:new 0 0 447.991 447.991;" xml:space="preserve">
<path style="fill:#1E88E5;" d="M420.988,330.534l-95.381-165.205c-0.128-0.235-0.363-0.363-0.512-0.576
	c-8.534-14.527-20.078-27.06-33.856-36.757h134.827C456.997,192.406,455.108,267.754,420.988,330.534z"/>
<circle style="fill:#607D8B;" cx="223.996" cy="223.996" r="96"/>
<path style="fill:#1976D2;" d="M414.438,106.662H223.996c-17.121,0.019-34.028,3.814-49.515,11.115L241.958,0.913
	C313.002,6.712,377.045,45.977,414.438,106.662z"/>
<path style="fill:#90CAF9;" d="M217.596,0.316l-95.211,165.013c0,0.192,0,0.384-0.192,0.576
	c-8.383,14.65-13.478,30.949-14.933,47.765L39.761,96.892C80.265,38.203,146.315,2.333,217.596,0.316z"/>
<path style="fill:#64B5F6;" d="M27.004,117.457l95.381,165.205c0,0.171,0.299,0.235,0.384,0.384
	c8.549,14.61,20.139,27.211,33.984,36.949H21.926C-9.006,255.585-7.117,180.237,27.004,117.457L27.004,117.457z"/>
<path style="fill:#42A5F5;" d="M33.553,341.329h190.443c17.121-0.019,34.028-3.814,49.515-11.115l-67.477,116.864
	C134.989,441.279,70.946,402.014,33.553,341.329z"/>
<path style="fill:#2196F3;" d="M230.396,447.676l95.275-165.013c0-0.192,0-0.384,0.192-0.576
	c8.383-14.65,13.478-30.949,14.933-47.765L408.209,351.1C367.71,409.783,301.668,445.652,230.396,447.676z"/>
<g>
</g>
<g>
</g>
<g>
</g>
<g>
</g>
<g>
</g>
<g>
</g>
<g>
</g>
<g>
</g>
<g>
</g>
<g>
</g>
<g>
</g>
<g>
</g>
<g>
</g>
<g>
</g>
<g>
</g>
</svg>
